<svg width="70" height="70" viewBox="0 0 70 70" fill="none" xmlns="http://www.w3.org/2000/svg">
<path d="M11.6668 11.6666H58.3335C59.8806 11.6666 61.3643 12.2812 62.4583 13.3752C63.5522 14.4691 64.1668 15.9529 64.1668 17.5V52.5C64.1668 54.0471 63.5522 55.5308 62.4583 56.6247C61.3643 57.7187 59.8806 58.3333 58.3335 58.3333H11.6668C10.1197 58.3333 8.636 57.7187 7.54204 56.6247C6.44808 55.5308 5.8335 54.0471 5.8335 52.5V17.5C5.8335 15.9529 6.44808 14.4691 7.54204 13.3752C8.636 12.2812 10.1197 11.6666 11.6668 11.6666ZM11.6668 17.5V52.5H32.0835V17.5H11.6668ZM58.3335 52.5V17.5H54.7168C55.4168 19.075 55.271 20.6208 55.271 20.7958C55.0668 22.75 53.696 24.7916 53.2002 25.5208L46.4043 32.9583L56.0877 32.9L56.1168 36.4583L40.9502 36.3708L40.8335 33.4541C40.8335 33.4541 49.7293 24.0333 50.1668 23.1875C50.5752 22.3708 52.2377 17.5 48.1252 17.5C44.5377 17.6458 44.946 21.2916 44.946 21.2916L40.4543 21.3208C40.4543 21.3208 40.4835 19.3958 41.5627 17.5H37.9168V52.5H45.4418L45.4127 49.9916L48.2418 49.9625C48.2418 49.9625 50.896 49.4958 50.9252 46.9C51.0418 43.9833 48.5627 43.9833 48.1252 43.9833C47.746 43.9833 45.0043 44.1291 45.0043 46.5208H40.571C40.571 46.5208 40.6877 40.5125 48.1252 40.5125C55.7085 40.5125 55.3002 46.4041 55.3002 46.4041C55.3002 46.4041 55.4168 50.05 52.0627 51.4208L53.5793 52.5H58.3335ZM26.0168 46.6666H21.6418V29.75L16.3918 31.3833V27.7958L25.5502 24.5291H26.0168V46.6666Z" fill="#0C7169"/>
</svg>
