<svg width="107" height="102" viewBox="0 0 107 102" fill="none" xmlns="http://www.w3.org/2000/svg">
<path d="M74.6667 48C76.1778 48 77.4444 47.4889 78.4667 46.4667C79.4889 45.4444 80 44.1778 80 42.6667C80 41.1556 79.4889 39.8889 78.4667 38.8667C77.4444 37.8444 76.1778 37.3333 74.6667 37.3333C73.1556 37.3333 71.8889 37.8444 70.8667 38.8667C69.8444 39.8889 69.3333 41.1556 69.3333 42.6667C69.3333 44.1778 69.8444 45.4444 70.8667 46.4667C71.8889 47.4889 73.1556 48 74.6667 48V48M32 37.3333H58.6667V26.6667H32V37.3333V37.3333M13.3333 101.333C10.3111 91.2 7.33333 81.0889 4.4 71C1.46667 60.9111 0 50.5778 0 40C0 31.8222 2.84444 24.8889 8.53333 19.2C14.2222 13.5111 21.1556 10.6667 29.3333 10.6667H56C58.5778 7.28889 61.7111 4.66667 65.4 2.8C69.0889 0.933333 73.0667 0 77.3333 0C79.5556 0 81.4444 0.777778 83 2.33333C84.5556 3.88889 85.3333 5.77778 85.3333 8C85.3333 8.53333 85.2667 9.06667 85.1333 9.6C85 10.1333 84.8444 10.6222 84.6667 11.0667C84.3111 12.0444 83.9778 13.0444 83.6667 14.0667C83.3556 15.0889 83.1111 16.1333 82.9333 17.2L95.0667 29.3333H106.667V66.5333L91.6 71.4667L82.6667 101.333H53.3333V90.6667H42.6667V101.333H13.3333V101.333M21.3333 90.6667H32V80H64V90.6667H74.6667L82.9333 63.2L96 58.8V40H90.6667L72 21.3333C72 19.5556 72.1111 17.8444 72.3333 16.2C72.5556 14.5556 72.8889 12.8889 73.3333 11.2C70.7556 11.9111 68.4889 13.1333 66.5333 14.8667C64.5778 16.6 63.1556 18.7556 62.2667 21.3333H29.3333C24.1778 21.3333 19.7778 23.1556 16.1333 26.8C12.4889 30.4444 10.6667 34.8444 10.6667 40C10.6667 48.7111 11.8667 57.2222 14.2667 65.5333C16.6667 73.8444 19.0222 82.2222 21.3333 90.6667V90.6667M53.3333 50.9333V50.9333V50.9333V50.9333V50.9333V50.9333V50.9333V50.9333V50.9333V50.9333V50.9333V50.9333V50.9333V50.9333V50.9333V50.9333V50.9333V50.9333V50.9333V50.9333V50.9333" fill="white"/>
</svg>
