<svg width="167" height="55" viewBox="0 0 167 55" fill="none" xmlns="http://www.w3.org/2000/svg">
<g clip-path="url(#clip0_91_333)">
<path d="M63.4446 2.93444C62.1381 1.29431 60.1688 0.47583 57.543 0.47583H45.4868V7.10616C49.3839 10.434 52.3363 14.8437 53.8477 19.8561H56.7521C59.6661 19.8561 61.8371 18.99 63.2781 17.2293C64.6935 15.4813 65.4012 13.0576 65.4012 9.93277C65.4012 6.80795 64.7543 4.57458 63.4446 2.93444ZM57.495 12.6674C56.9314 13.2987 55.9483 13.6191 54.5426 13.6191H52.7686V6.73816H54.8436C56.1981 6.73816 57.1107 7.07126 57.6135 7.74698C58.1066 8.42588 58.3468 9.24436 58.3468 10.2056C58.3468 11.1668 58.0586 12.0234 57.495 12.6642V12.6674Z" fill="#1C61AE"/>
<path d="M69.8682 7.48376V31.2958H77.1499V7.48376H69.8682Z" fill="#C37766"/>
<path d="M151.754 0L146.202 9.18729L140.669 0H131.229L141.94 15.8176V27.2256H150.445V15.8176L161.134 0H151.754Z" fill="#1C61AE"/>
<path d="M133.185 36.3525H128.961L124.248 50.5522H128.205L128.804 48.211H133.207L133.832 50.5522H137.886L133.185 36.3525ZM129.659 45.1464L131.027 40.0357L132.407 45.1464H129.659Z" fill="#009F8F"/>
<path d="M147.483 36.3525V44.2201L142.756 36.3525H139.144V50.5522H142.779V42.7671L147.479 50.5522H151.127V36.3525H147.479H147.483Z" fill="#009F8F"/>
<path d="M162.212 41.7107L166.795 36.3525H161.649L157.582 41.7234V36.3525H153.72V50.5522H157.582V47.0943L159.587 44.7182L162.225 50.5522H167L162.212 41.7107Z" fill="#009F8F"/>
<path d="M93.5803 26.7433C90.9577 26.7433 88.9819 24.1864 88.9819 20.7951C88.9819 17.4038 90.9609 14.8468 93.5803 14.8468C96.1996 14.8468 98.1786 17.4038 98.1786 20.7951C98.1786 24.1864 96.1996 26.7433 93.5803 26.7433Z" fill="black"/>
<path d="M85.2898 11.5254C86.6956 10.0693 88.9051 9.66953 90.8296 10.0407C93.4297 10.5388 95.6745 12.0044 97.8327 13.4574C98.6365 13.9999 99.8277 13.6097 100.295 12.8166C100.814 11.9378 100.455 10.9195 99.6484 10.377C97.0642 8.6385 94.2815 6.93492 91.1338 6.49713C87.986 6.05933 84.9087 6.76361 82.7441 9.00333C81.143 10.6625 83.6823 13.1846 85.2898 11.5254Z" fill="black"/>
<path d="M122.3 26.6609C119.678 26.6609 117.702 24.104 117.702 20.7127C117.702 17.3214 119.681 14.7644 122.3 14.7644C124.92 14.7644 126.902 17.3214 126.902 20.7127C126.902 24.104 124.923 26.6609 122.3 26.6609Z" fill="black"/>
<path d="M133.133 8.92076C130.972 6.68104 127.757 5.9958 124.744 6.41456C121.593 6.85235 118.81 8.55276 116.229 10.2944C115.425 10.8337 115.07 11.8616 115.582 12.734C116.047 13.5239 117.238 13.9173 118.045 13.3748C120.2 11.9219 122.445 10.4562 125.048 9.95814C126.976 9.58697 129.182 9.98669 130.588 11.4428C132.192 13.1052 134.735 10.5799 133.133 8.92076Z" fill="black"/>
<path d="M107.753 27.7363C98.576 27.7363 91.1533 32.8344 91.1533 39.1094C91.1533 45.3844 98.5792 50.4952 107.753 50.4952C116.928 50.4952 124.354 45.3971 124.354 39.1094C124.354 32.8217 116.915 27.7363 107.753 27.7363ZM101.576 42.6879C100.366 42.6879 99.3797 41.0826 99.3797 39.1094C99.3797 37.1362 100.363 35.5436 101.576 35.5436C102.79 35.5436 103.783 37.1362 103.783 39.1094C103.783 41.0826 102.8 42.6879 101.576 42.6879ZM113.934 42.6879C112.71 42.6879 111.727 41.0826 111.727 39.1094C111.727 37.1362 112.71 35.5436 113.934 35.5436C115.157 35.5436 116.117 37.1362 116.117 39.1094C116.117 41.0826 115.147 42.6879 113.934 42.6879Z" fill="#C37766"/>
<path d="M53.8478 19.8592H52.7687V31.3148H45.4869V7.10616C40.6645 2.97251 34.3914 0.47583 27.5163 0.47583C12.3188 0.47583 0 12.6801 0 27.7363C0 42.7926 12.3188 54.9968 27.5163 54.9968C42.7139 54.9968 55.023 42.7799 55.023 27.7363C55.023 24.9922 54.6163 22.3527 53.8478 19.8561V19.8592ZM42.8355 41.0699C41.4682 43.1257 39.5725 44.6833 37.1389 45.7397C35.1599 46.6058 32.7487 47.1197 29.9179 47.272V50.3143H25.1083V47.2371C20.1065 46.9294 16.5328 45.7048 14.4098 43.611C11.9025 41.1144 10.4871 37.9673 10.1637 34.1382L21.4034 33.4498C21.6435 35.2549 22.1463 36.6349 22.902 37.5866C24.1124 39.1189 25.8544 39.8803 28.1215 39.8803C29.7995 39.8803 31.1092 39.4869 32.0186 38.7033C32.9312 37.9197 33.3859 37.0156 33.3859 35.9814C33.3859 34.9472 32.9536 34.116 32.0794 33.342C31.2148 32.5711 29.1879 31.8319 26.0337 31.1435C20.8398 29.9919 17.1445 28.4565 14.9382 26.5435C12.7062 24.6305 11.5919 22.1941 11.5919 19.2216C11.5919 17.2737 12.1683 15.4306 13.3083 13.6952C14.4482 11.9726 16.1646 10.6053 18.4413 9.6187C20.0488 8.9176 22.0758 8.46712 24.5095 8.27678V5.13927H29.3191V8.16891C33.4948 8.32436 36.7322 9.21581 39.0345 10.8306C41.6027 12.6357 43.1237 15.5003 43.6169 19.4341L32.4733 20.075C32.1723 18.365 31.5511 17.1278 30.6032 16.3442C29.6554 15.5733 28.3489 15.1926 26.6805 15.1926C25.3004 15.1926 24.2693 15.4781 23.5744 16.0587C22.8796 16.6297 22.5305 17.3308 22.5305 18.162C22.5305 18.7679 22.8187 19.3041 23.3951 19.7894C23.9459 20.2875 25.2652 20.7507 27.3658 21.179C32.5245 22.2829 36.2294 23.4028 38.4614 24.529C40.7061 25.6584 42.3232 27.0606 43.3447 28.7356C44.363 30.398 44.8689 32.276 44.8689 34.3444C44.8689 36.7682 44.1965 39.0142 42.8419 41.0604L42.8355 41.0699Z" fill="#FFC107"/>
<path d="M66.5604 34.7473V44.7499L63.1309 45.2987V34.7473H66.5604Z" fill="#1C61AE"/>
<path d="M63.1309 46.4535L66.5604 45.9047V50.2509H63.1309V46.4535Z" fill="#1C61AE"/>
<path d="M72.4588 38.2148V43.7951L68.8403 44.382V38.2148H72.4588Z" fill="#C37766"/>
<path d="M68.8403 45.5399L72.4588 44.9498V50.1526H68.8403V45.5399Z" fill="#C37766"/>
<path d="M78.3667 34.005V42.8497L74.5562 43.4588V34.005H78.3667Z" fill="#FFC107"/>
<path d="M74.5562 44.623L78.3667 44.0076V50.2509H74.5562V44.623Z" fill="#FFC107"/>
<path d="M84.3872 38.7954V41.879L80.9385 42.4373V38.7954H84.3872Z" fill="#009F8F"/>
<path d="M80.9385 43.592L84.3872 43.0432V50.2509H80.9385V43.592Z" fill="#009F8F"/>
<path d="M60.7709 43.2462V45.6731L57.335 46.2219V43.2462H60.7709Z" fill="#009F8F"/>
<path d="M57.335 47.3894L60.7709 46.8311V50.2509H57.335V47.3894Z" fill="#009F8F"/>
<path d="M57.3381 46.2283V47.3925L55.5513 47.6654V46.5138L57.3381 46.2283Z" fill="#009F8F"/>
<path d="M60.771 45.6732L63.131 45.2988V46.4536L60.771 46.8311V45.6732Z" fill="#009F8F"/>
<path d="M66.5605 44.75L68.8405 44.382V45.5399L66.5605 45.9047V44.75Z" fill="#009F8F"/>
<path d="M72.459 43.795L74.5564 43.4587V44.623L72.459 44.9498V43.795Z" fill="#009F8F"/>
<path d="M78.3667 42.8497L80.938 42.4373V43.592L78.3667 44.0076V42.8497Z" fill="#009F8F"/>
<path d="M87.0258 41.4634V42.615L84.3872 43.0432V41.879L87.0258 41.4634Z" fill="#009F8F"/>
</g>
<defs>
<clipPath id="clip0_91_333">
<rect width="167" height="55" fill="white"/>
</clipPath>
</defs>
</svg>
