<svg width="161" height="140" viewBox="0 0 161 140" fill="none" xmlns="http://www.w3.org/2000/svg">
<g clip-path="url(#clip0_276_596)">
<path d="M35.4298 64.45C27.2398 64.45 21.0698 56.39 21.0698 45.7C21.0698 35.01 27.2498 26.95 35.4298 26.95C43.6098 26.95 49.7898 35.01 49.7898 45.7C49.7898 56.39 43.6098 64.45 35.4298 64.45Z" fill="black"/>
<path d="M9.54024 16.47C13.9302 11.88 20.8302 10.62 26.8402 11.79C34.9602 13.36 41.9702 17.98 48.7102 22.56C51.2202 24.27 54.9402 23.04 56.4002 20.54C58.0202 17.77 56.9002 14.56 54.3802 12.85C46.3202 7.38 37.6302 2.01 27.7902 0.630002C17.9502 -0.749998 8.35024 1.47 1.59024 8.53C-3.40976 13.76 4.52024 21.71 9.54024 16.48V16.47Z" fill="black"/>
<path d="M125.11 64.18C116.92 64.18 110.75 56.12 110.75 45.43C110.75 34.74 116.93 26.68 125.11 26.68C133.29 26.68 139.48 34.74 139.48 45.43C139.48 56.12 133.3 64.18 125.11 64.18Z" fill="black"/>
<path d="M158.95 8.26C152.2 1.20001 142.16 -0.959995 132.75 0.360005C122.91 1.74001 114.22 7.10001 106.16 12.59C103.65 14.29 102.54 17.53 104.14 20.28C105.59 22.77 109.31 24.01 111.83 22.3C118.56 17.72 125.57 13.1 133.7 11.53C139.72 10.36 146.61 11.62 151 16.21C156.01 21.45 163.95 13.49 158.95 8.26Z" fill="black"/>
<path d="M79.6901 67.58C51.0301 67.58 27.8501 83.65 27.8501 103.43C27.8501 123.21 51.0401 139.32 79.6901 139.32C108.34 139.32 131.53 123.25 131.53 103.43C131.53 83.61 108.3 67.58 79.6901 67.58ZM60.4001 114.7C56.6201 114.7 53.5401 109.64 53.5401 103.42C53.5401 97.2 56.6101 92.18 60.4001 92.18C64.1901 92.18 67.2901 97.2 67.2901 103.42C67.2901 109.64 64.2201 114.7 60.4001 114.7ZM98.9801 114.7C95.1601 114.7 92.0901 109.64 92.0901 103.42C92.0901 97.2 95.1601 92.18 98.9801 92.18C102.8 92.18 105.8 97.2 105.8 103.42C105.8 109.64 102.77 114.7 98.9801 114.7Z" fill="#D88484"/>
</g>
<defs>
<clipPath id="clip0_276_596">
<rect width="160.54" height="139.31" fill="white"/>
</clipPath>
</defs>
</svg>
