<svg width="45" height="45" viewBox="0 0 45 45" fill="none" xmlns="http://www.w3.org/2000/svg">
<path fill-rule="evenodd" clip-rule="evenodd" d="M35.625 5.625C38.7316 5.625 41.25 8.14342 41.25 11.25C41.25 14.3566 38.7316 16.875 35.625 16.875C34.6027 16.875 33.644 16.6023 32.8179 16.1256L27.748 20.4712C27.9981 21.1183 28.126 21.8062 28.1251 22.5C28.1252 22.8366 28.0953 23.1725 28.0357 23.5037L31.9506 25.7408C32.9363 24.8897 34.2205 24.375 35.625 24.375C38.7316 24.375 41.25 26.8934 41.25 30C41.25 33.1066 38.7316 35.625 35.625 35.625C32.5184 35.625 30 33.1066 30 30C30 29.6575 30.0306 29.3222 30.0892 28.9966L26.1738 26.7596L26.179 26.755L26.1353 26.7925C25.155 27.6237 23.886 28.125 22.5 28.125C21.4717 28.125 20.5078 27.849 19.6784 27.3672L19.6924 27.3753L14.6229 31.721C14.8731 32.3681 15.001 33.0561 15.0001 33.75C15.0001 36.8566 12.4817 39.375 9.37509 39.375C6.26851 39.375 3.75009 36.8566 3.75009 33.75C3.75009 30.6434 6.26851 28.125 9.37509 28.125C10.3974 28.125 11.3561 28.3977 12.1822 28.8744L17.2521 24.5289L17.2303 24.4717C16.9946 23.8411 16.8743 23.1732 16.875 22.5C16.8748 22.1634 16.9047 21.8275 16.9643 21.4963L13.0494 19.2592C12.0638 20.1103 10.7795 20.625 9.375 20.625C6.26842 20.625 3.75 18.1066 3.75 15C3.75 11.8934 6.26842 9.37503 9.375 9.37503C12.4816 9.37503 15 11.8934 15 15C15 15.3423 14.9694 15.6775 14.9109 16.0029L18.8266 18.2399C18.8108 18.2535 18.7951 18.2672 18.7795 18.2811C19.7711 17.4059 21.0735 16.875 22.5 16.875C23.523 16.875 24.4823 17.1482 25.309 17.6255L25.3058 17.6237L30.3767 13.2782C30.1268 12.6312 29.9991 11.9435 30 11.25C30 8.14342 32.5184 5.625 35.625 5.625ZM22.5 20.625C21.4644 20.625 20.625 21.4644 20.625 22.5C20.625 23.5356 21.4644 24.375 22.5 24.375C23.5355 24.375 24.375 23.5356 24.375 22.5C24.375 21.4644 23.5355 20.625 22.5 20.625ZM9.375 13.125C8.33947 13.125 7.50003 13.9645 7.50003 15C7.50003 16.0356 8.33938 16.875 9.375 16.875C10.4106 16.875 11.25 16.0356 11.25 15C11.25 13.9645 10.4106 13.125 9.375 13.125ZM35.625 9.37503C34.5895 9.37503 33.75 10.2144 33.75 11.25C33.75 12.2856 34.5895 13.125 35.625 13.125C36.6606 13.125 37.5 12.2856 37.5 11.25C37.5 10.2144 36.6606 9.37503 35.625 9.37503Z" fill="#0D726B"/>
</svg>
