<svg width="45" height="45" viewBox="0 0 45 45" fill="none" xmlns="http://www.w3.org/2000/svg">
<mask id="path-1-inside-1_274_338" fill="white">
<path d="M41.25 3.75V7.5C37.9875 7.5 35.625 16.0875 33.675 23.0063C31.0687 32.3813 28.6125 41.25 22.5 41.25C16.3875 41.25 13.9312 32.3813 11.325 23.0063C9.375 16.0875 7.0125 7.5 3.75 7.5V3.75C9.8625 3.75 12.3188 12.6187 14.925 21.9937C16.875 28.9125 19.2375 37.5 22.5 37.5C25.7625 37.5 28.125 28.9125 30.075 21.9937C32.6813 12.6187 35.1375 3.75 41.25 3.75Z"/>
</mask>
<path d="M41.25 3.75V7.5C37.9875 7.5 35.625 16.0875 33.675 23.0063C31.0687 32.3813 28.6125 41.25 22.5 41.25C16.3875 41.25 13.9312 32.3813 11.325 23.0063C9.375 16.0875 7.0125 7.5 3.75 7.5V3.75C9.8625 3.75 12.3188 12.6187 14.925 21.9937C16.875 28.9125 19.2375 37.5 22.5 37.5C25.7625 37.5 28.125 28.9125 30.075 21.9937C32.6813 12.6187 35.1375 3.75 41.25 3.75Z" fill="#6C7A8B"/>
<path d="M41.25 3.75H93.25V-48.25H41.25V3.75ZM41.25 7.5V59.5H93.25V7.5H41.25ZM33.675 23.0063L-16.3751 8.89999L-16.4002 8.98917L-16.4251 9.07843L33.675 23.0063ZM11.325 23.0063L61.4251 9.07843L61.4002 8.98917L61.3751 8.89999L11.325 23.0063ZM3.75 7.5H-48.25V59.5H3.75V7.5ZM3.75 3.75V-48.25H-48.25V3.75H3.75ZM14.925 21.9937L-35.1751 35.9216L-35.1502 36.0108L-35.1251 36.1L14.925 21.9937ZM30.075 21.9937L80.1251 36.1L80.1502 36.0108L80.1751 35.9216L30.075 21.9937ZM41.25 3.75H-10.75V7.5H41.25H93.25V3.75H41.25ZM41.25 7.5V-44.5C16.0979 -44.5 1.92285 -28.1206 -2.07142 -22.9887C-7.06258 -16.5759 -9.84181 -10.2223 -11.1013 -7.16862C-13.7585 -0.72632 -15.6994 6.50238 -16.3751 8.89999L33.675 23.0063L83.7251 37.1125C84.9994 32.5914 85.2147 32.0669 85.0419 32.4858C85.0246 32.5278 83.5696 36.3021 79.9999 40.8885C77.4271 44.1941 64.7709 59.5 41.25 59.5V7.5ZM33.675 23.0063L-16.4251 9.07843C-17.1405 11.652 -17.4974 12.9085 -17.808 13.8728C-18.1379 14.8975 -17.93 14.0235 -17.0564 12.2859C-16.3293 10.8398 -13.5976 5.61144 -7.56044 0.389342C-0.462353 -5.75044 10.0101 -10.75 22.5 -10.75V41.25V93.25C56.5395 93.25 71.9456 66.7893 75.861 59.0016C80.344 50.085 82.9396 39.9392 83.7751 36.9341L33.675 23.0063ZM22.5 41.25V-10.75C34.9899 -10.75 45.4624 -5.75044 52.5604 0.389341C58.5976 5.61144 61.3293 10.8398 62.0564 12.2859C62.93 14.0235 63.1379 14.8975 62.8079 13.8728C62.4974 12.9085 62.1405 11.652 61.4251 9.07843L11.325 23.0063L-38.7751 36.9341C-37.9396 39.9392 -35.344 50.085 -30.861 59.0016C-26.9456 66.7893 -11.5395 93.25 22.5 93.25V41.25ZM11.325 23.0063L61.3751 8.89999C60.6994 6.50239 58.7585 -0.726318 56.1013 -7.16862C54.8418 -10.2223 52.0626 -16.5759 47.0714 -22.9887C43.0772 -28.1206 28.9021 -44.5 3.75 -44.5V7.5V59.5C-19.7709 59.5 -32.4272 44.1941 -34.9999 40.8885C-38.5696 36.3021 -40.0246 32.5278 -40.0419 32.4858C-40.2147 32.0669 -39.9994 32.5914 -38.7251 37.1125L11.325 23.0063ZM3.75 7.5H55.75V3.75H3.75H-48.25V7.5H3.75ZM3.75 3.75V55.75C-8.73987 55.75 -19.2124 50.7504 -26.3104 44.6107C-32.3476 39.3886 -35.0793 34.1602 -35.8064 32.7141C-36.68 30.9765 -36.8879 30.1026 -36.5579 31.1272C-36.2474 32.0915 -35.8905 33.348 -35.1751 35.9216L14.925 21.9937L65.0251 8.06593C64.1896 5.06081 61.594 -5.08499 57.111 -14.0016C53.1956 -21.7893 37.7895 -48.25 3.75 -48.25V3.75ZM14.925 21.9937L-35.1251 36.1C-34.4494 38.4976 -32.5085 45.7263 -29.8513 52.1686C-28.5918 55.2223 -25.8126 61.5759 -20.8214 67.9887C-16.8272 73.1206 -2.65211 89.5 22.5 89.5V37.5V-14.5C46.0209 -14.5 58.6772 0.805922 61.2499 4.11152C64.8196 8.69794 66.2746 12.4722 66.2919 12.5142C66.4647 12.9331 66.2494 12.4086 64.9751 7.88749L14.925 21.9937ZM22.5 37.5V89.5C47.6521 89.5 61.8272 73.1206 65.8214 67.9887C70.8126 61.5759 73.5918 55.2223 74.8513 52.1686C77.5085 45.7263 79.4494 38.4976 80.1251 36.1L30.075 21.9937L-19.9751 7.88749C-21.2494 12.4086 -21.4647 12.9331 -21.2919 12.5142C-21.2746 12.4722 -19.8196 8.69794 -16.2499 4.11151C-13.6772 0.80592 -1.02086 -14.5 22.5 -14.5V37.5ZM30.075 21.9937L80.1751 35.9216C80.8905 33.348 81.2474 32.0915 81.558 31.1272C81.8879 30.1025 81.68 30.9765 80.8064 32.7141C80.0793 34.1602 77.3476 39.3886 71.3104 44.6107C64.2124 50.7504 53.7399 55.75 41.25 55.75V3.75V-48.25C7.21054 -48.25 -8.19563 -21.7893 -12.111 -14.0016C-16.594 -5.08499 -19.1896 5.06081 -20.0251 8.06593L30.075 21.9937Z" fill="#0D726B" mask="url(#path-1-inside-1_274_338)"/>
</svg>
