<svg width="24" height="24" viewBox="0 0 24 24" fill="none" xmlns="http://www.w3.org/2000/svg">
<path d="M18 0H7.5V9H8.55L8.85 10.05L9 10.2V1.5H16.5V7.5H22.5V21H13.5L13.95 21.75L13.2 22.5H24V6L18 0ZM18 6V1.5L22.5 6H18ZM8.25 17.25C8.25 17.6478 8.09196 18.0294 7.81066 18.3107C7.52936 18.592 7.14782 18.75 6.75 18.75C6.35218 18.75 5.97064 18.592 5.68934 18.3107C5.40804 18.0294 5.25 17.6478 5.25 17.25C5.25 16.8522 5.40804 16.4706 5.68934 16.1893C5.97064 15.908 6.35218 15.75 6.75 15.75C7.14782 15.75 7.52936 15.908 7.81066 16.1893C8.09196 16.4706 8.25 16.8522 8.25 17.25Z" fill="#FEFEFF"/>
<path d="M11.85 16.85L13.5 16.25V14.75L11.85 14.15C11.7 13.7 11.55 13.25 11.25 12.8L12 11.3L10.95 10.25L9.45 11C9 10.7 8.55 10.55 8.1 10.4L7.5 8.75H6L5.4 10.4C4.95 10.55 4.5 10.7 4.05 11L2.55 10.25L1.5 11.3L2.25 12.95C1.95 13.4 1.8 13.85 1.65 14.3L0 14.75V16.25L1.65 16.85C1.8 17.3 1.95 17.75 2.25 18.2L1.5 19.7L2.55 20.75L4.2 20C4.65 20.3 5.1 20.45 5.55 20.6L6 22.25H7.5L8.1 20.6C8.55 20.45 9 20.3 9.45 20L10.95 20.75L12 19.7L11.25 18.05C11.55 17.75 11.7 17.3 11.85 16.85ZM6.75 18.5C5.1 18.5 3.75 17.15 3.75 15.5C3.75 13.85 5.1 12.5 6.75 12.5C8.4 12.5 9.75 13.85 9.75 15.5C9.75 17.15 8.4 18.5 6.75 18.5Z" fill="#FEFEFF"/>
</svg>
