<svg width="24" height="24" viewBox="0 0 24 24" fill="none" xmlns="http://www.w3.org/2000/svg">
<path d="M12 0C8.8174 0 5.76516 1.26428 3.51472 3.51472C1.26428 5.76516 0 8.8174 0 12C0 15.1826 1.26428 18.2348 3.51472 20.4853C5.76516 22.7357 8.8174 24 12 24C15.1826 24 18.2348 22.7357 20.4853 20.4853C22.7357 18.2348 24 15.1826 24 12C24 8.8174 22.7357 5.76516 20.4853 3.51472C18.2348 1.26428 15.1826 0 12 0ZM3.2 8H6.4C6.82435 8 7.23131 8.16857 7.53137 8.46863C7.83143 8.76869 8 9.17565 8 9.6V11.2C8 12 7.392 12.64 6.624 12.752L8.496 16H6.64L4.8 12.8V16H3.2M11.2 8H14.4V9.6H11.2V11.2H14.4V12.8H11.2V14.4H14.4V16H11.2C10.7757 16 10.3687 15.8314 10.0686 15.5314C9.76857 15.2313 9.6 14.8243 9.6 14.4V9.6C9.6 9.17565 9.76857 8.76869 10.0686 8.46863C10.3687 8.16857 10.7757 8 11.2 8ZM17.6 8H20.8V9.6H17.6V14.4H20.8V16H17.6C17.1757 16 16.7687 15.8314 16.4686 15.5314C16.1686 15.2313 16 14.8243 16 14.4V9.6C16 9.17565 16.1686 8.76869 16.4686 8.46863C16.7687 8.16857 17.1757 8 17.6 8ZM4.8 9.6V11.2H6.4V9.6" fill="#FEFFFF"/>
</svg>
