<svg width="22" height="22" viewBox="0 0 22 22" fill="none" xmlns="http://www.w3.org/2000/svg">
<path d="M17.888 4.11221C16.0704 2.29463 13.1292 2.29463 11.3138 4.11221L9.23193 6.19404L10.3276 7.28975L12.4095 5.20791C13.5653 4.05205 15.5161 3.92959 16.7923 5.20791C18.0706 6.48623 17.9481 8.43486 16.7923 9.59072L14.7104 11.6726L15.8083 12.7704L17.8901 10.6886C19.7034 8.871 19.7034 5.92979 17.888 4.11221ZM9.59287 16.7923C8.43701 17.9481 6.48623 18.0706 5.21006 16.7923C3.93174 15.514 4.0542 13.5653 5.21006 12.4095L7.29189 10.3276L6.19404 9.22979L4.11221 11.3116C2.29463 13.1292 2.29463 16.0704 4.11221 17.8858C5.92979 19.7013 8.871 19.7034 10.6864 17.8858L12.7683 15.804L11.6726 14.7083L9.59287 16.7923ZM5.59248 4.49893C5.56018 4.46694 5.51655 4.449 5.47109 4.449C5.42563 4.449 5.38201 4.46694 5.34971 4.49893L4.49893 5.34971C4.46694 5.38201 4.449 5.42563 4.449 5.47109C4.449 5.51655 4.46694 5.56018 4.49893 5.59248L16.4099 17.5034C16.4765 17.57 16.586 17.57 16.6526 17.5034L17.5034 16.6526C17.57 16.586 17.57 16.4765 17.5034 16.4099L5.59248 4.49893Z" fill="#BA1A1A"/>
</svg>
